<svg width="22" height="16" viewBox="0 0 22 16" fill="none" xmlns="http://www.w3.org/2000/svg">
<path d="M9.25747 10.7602L15.8921 6.2489C16.0794 6.1098 16.2465 5.9455 16.3884 5.7612C16.8738 5.13041 16.8642 4.25551 16.5565 3.52366C15.8719 1.89514 14.2473 0.75 12.3521 0.75C11.4165 0.75 10.5469 1.02908 9.82377 1.50762L2.74426 6.5067" stroke="white" stroke-width="1.5" stroke-linecap="round" stroke-linejoin="round"/>
<path d="M4.74722 9.2566C4.74722 9.9526 5.11575 11.3359 6.78788 11.7155C7.79385 11.9439 10.7247 10.9805 9.29068 8.1885C7.85676 5.39659 4.40358 5.38202 2.9989 6.3175C2.14048 6.8389 0.473395 8.4663 0.789445 10.6296C0.901625 11.9403 1.93368 14.5996 5.16446 14.7517H15.0558C15.9776 14.6786 16.1681 14.5449 16.8702 14.0062C17.8147 13.158 19.3922 11.5985 20.3086 10.5718C20.5066 10.35 20.7203 10.1217 20.7477 9.8257C20.8934 8.249 18.5009 8.9319 16.7678 8.744" stroke="white" stroke-width="1.5" stroke-linecap="round" stroke-linejoin="round"/>
</svg>
