<svg width="14" height="22" viewBox="0 0 14 22" fill="none" xmlns="http://www.w3.org/2000/svg">
<path d="M2.75147 19.75C2.75147 18.3358 2.75147 17.6287 3.19081 17.1893C3.63015 16.75 4.33726 16.75 5.75147 16.75H7.75147C9.16567 16.75 9.87277 16.75 10.3122 17.1893C10.7515 17.6287 10.7515 18.3358 10.7515 19.75V20.75H2.75147V19.75Z" stroke="white" stroke-width="1.5" stroke-linecap="round" stroke-linejoin="round"/>
<path d="M6.75147 11.75V16.75" stroke="white" stroke-width="1.5" stroke-linecap="round" stroke-linejoin="round"/>
<path d="M0.751472 20.75H12.7515" stroke="white" stroke-width="1.5" stroke-linecap="round" stroke-linejoin="round"/>
<path d="M7.78807 1.61651L8.84397 3.74573C8.98787 4.04212 9.37187 4.32642 9.69587 4.38086L11.6097 4.70145C12.8335 4.90712 13.1215 5.80236 12.2396 6.6855L10.7518 8.18563C10.4998 8.43968 10.3618 8.9296 10.4398 9.2805L10.8657 11.1375C11.2017 12.6074 10.4278 13.176 9.13787 12.4078L7.34407 11.3371C7.02017 11.1435 6.48617 11.1435 6.15627 11.3371L4.36243 12.4078C3.07857 13.176 2.29866 12.6013 2.63462 11.1375L3.06057 9.2805C3.13857 8.9296 3.00058 8.43968 2.74861 8.18563L1.26077 6.6855C0.384873 5.80236 0.666843 4.90712 1.8907 4.70145L3.80449 4.38086C4.12246 4.32642 4.50641 4.04212 4.6504 3.74573L5.70627 1.61651C6.28217 0.461163 7.21807 0.461163 7.78807 1.61651Z" stroke="white" stroke-width="1.5" stroke-linecap="round" stroke-linejoin="round"/>
</svg>
