<svg width="22" height="20" viewBox="0 0 22 20" fill="none" xmlns="http://www.w3.org/2000/svg">
<path d="M16.75 0.75V5.75M4.75 0.75V5.75" stroke="white" stroke-width="1.5" stroke-linecap="round" stroke-linejoin="round"/>
<path d="M19.25 1.75V3.25M19.25 3.25V4.75M19.25 3.25H20.75M2.25 1.75V3.25M2.25 3.25V4.75M2.25 3.25H0.75" stroke="white" stroke-width="1.5" stroke-linecap="round" stroke-linejoin="round"/>
<path d="M16.75 3.25H4.75" stroke="white" stroke-width="1.5" stroke-linecap="round" stroke-linejoin="round"/>
<path d="M6.02653 16.75H15.4735C16.711 16.75 17.3297 16.75 17.5856 16.4474C18.1663 15.7607 17.0538 14.8531 16.6479 14.3956C16.1905 13.8802 15.8559 13.75 15.1799 13.75H6.32013C5.64408 13.75 5.30953 13.8802 4.85214 14.3956C4.44617 14.8531 3.33375 15.7607 3.91444 16.4474C4.17026 16.75 4.78902 16.75 6.02653 16.75Z" stroke="white" stroke-width="1.5" stroke-linecap="round" stroke-linejoin="round"/>
<path d="M7.75 5.75V13.75M13.75 5.75V13.75" stroke="white" stroke-width="1.5" stroke-linecap="round" stroke-linejoin="round"/>
<path d="M14.75 16.75V18.75M6.75 16.75V18.75" stroke="white" stroke-width="1.5" stroke-linecap="round" stroke-linejoin="round"/>
</svg>
