<svg width="19" height="19" viewBox="0 0 19 19" fill="none" xmlns="http://www.w3.org/2000/svg">
<path d="M9.28097 1.67212C11.759 1.67212 12.0529 1.6814 13.0312 1.72626C14.0429 1.77266 15.0847 2.00314 15.8217 2.74021C16.5658 3.48423 16.7893 4.51595 16.8357 5.53069C16.8805 6.50904 16.8898 6.80295 16.8898 9.28097C16.8898 11.759 16.8805 12.0529 16.8357 13.0312C16.79 14.0375 16.5542 15.0893 15.8217 15.8217C15.0777 16.5658 14.0467 16.7893 13.0312 16.8357C12.0529 16.8805 11.759 16.8898 9.28097 16.8898C6.80295 16.8898 6.50904 16.8805 5.53069 16.8357C4.53219 16.79 3.46644 16.5487 2.74021 15.8217C2.00005 15.0816 1.77266 14.0398 1.72626 13.0312C1.6814 12.0529 1.67212 11.759 1.67212 9.28097C1.67212 6.80295 1.6814 6.50904 1.72626 5.53069C1.77189 4.52835 2.0101 3.47031 2.74021 2.74021C3.48268 1.99773 4.51827 1.77266 5.53069 1.72626C6.50904 1.6814 6.80295 1.67212 9.28097 1.67212ZM9.28097 0C6.76042 0 6.44407 0.0108278 5.45413 0.0556858C4.01942 0.121426 2.5948 0.520506 1.55765 1.55765C0.516642 2.59867 0.121426 4.02022 0.0556858 5.45413C0.0108278 6.44407 0 6.76042 0 9.28097C0 11.8015 0.0108278 12.1179 0.0556858 13.1078C0.121426 14.541 0.522054 15.9695 1.55765 17.0043C2.5979 18.0445 4.02174 18.4405 5.45413 18.5062C6.44407 18.5511 6.76042 18.5619 9.28097 18.5619C11.8015 18.5619 12.1179 18.5511 13.1078 18.5062C14.5417 18.4405 15.9679 18.0406 17.0043 17.0043C18.0461 15.9625 18.4405 14.5417 18.5062 13.1078C18.5511 12.1179 18.5619 11.8015 18.5619 9.28097C18.5619 6.76042 18.5511 6.44407 18.5062 5.45413C18.4405 4.01942 18.0406 2.59403 17.0043 1.55765C15.9656 0.518962 14.5379 0.120653 13.1078 0.0556858C12.1179 0.0108278 11.8015 0 9.28097 0Z" fill="white"/>
<path d="M9.28097 4.5152C6.64906 4.5152 4.5152 6.64906 4.5152 9.28097C4.5152 11.9129 6.64906 14.0468 9.28097 14.0468C11.9129 14.0468 14.0468 11.9129 14.0468 9.28097C14.0468 6.64906 11.9129 4.5152 9.28097 4.5152ZM9.28097 12.3746C7.57251 12.3746 6.18733 10.9894 6.18733 9.28097C6.18733 7.57251 7.57251 6.18733 9.28097 6.18733C10.9894 6.18733 12.3746 7.57251 12.3746 9.28097C12.3746 10.9894 10.9894 12.3746 9.28097 12.3746Z" fill="white"/>
<path d="M14.2355 5.44021C14.8506 5.44021 15.3492 4.94158 15.3492 4.3265C15.3492 3.71138 14.8506 3.21277 14.2355 3.21277C13.6204 3.21277 13.1217 3.71138 13.1217 4.3265C13.1217 4.94158 13.6204 5.44021 14.2355 5.44021Z" fill="white"/>
</svg>
