<svg width="19" height="19" viewBox="0 0 19 19" fill="none" xmlns="http://www.w3.org/2000/svg">
<mask id="mask0_1_59" style="mask-type:luminance" maskUnits="userSpaceOnUse" x="-1" y="0" width="20" height="19">
<path d="M18.561 0H-0.000919342V18.5619H18.561V0Z" fill="white"/>
</mask>
<g mask="url(#mask0_1_59)">
<path d="M16.6607 5.49453C16.6716 5.65771 16.6716 5.82168 16.6716 5.98642C16.6716 11.019 12.8401 16.8219 5.83605 16.8219V16.8189C3.76715 16.8219 1.74081 16.2295 -0.000919342 15.1119C0.299939 15.1483 0.602343 15.1661 0.905523 15.1669C2.62095 15.1684 4.28689 14.593 5.63495 13.5334C4.00538 13.5024 2.5761 12.4398 2.07724 10.8883C2.64802 10.9981 3.23582 10.9757 3.79656 10.8234C2.01924 10.4645 0.741558 8.90296 0.741558 7.09009C0.741558 7.07385 0.741558 7.05761 0.741558 7.04213C1.27135 7.33756 1.86378 7.50078 2.47014 7.51854C0.796472 6.40098 0.27983 4.17507 1.29068 2.4349C3.22422 4.81394 6.07735 6.26021 9.13927 6.41411C8.83224 5.09157 9.2522 3.70562 10.2406 2.7752C11.7743 1.33279 14.1866 1.40703 15.629 2.94071C16.4821 2.77288 17.2996 2.45965 18.0475 2.01648C17.7628 2.89817 17.1681 3.64685 16.373 4.12327C17.1287 4.03278 17.8657 3.83092 18.561 3.5231C18.0498 4.288 17.4063 4.95547 16.6607 5.49453Z" fill="white"/>
</g>
</svg>
